<svg width="30" height="36" viewBox="0 0 30 36" fill="none" xmlns="http://www.w3.org/2000/svg">
<mask id="path-1-outside-1_6268_1600" maskUnits="userSpaceOnUse" x="-1" y="-1.29517" width="32" height="38" fill="black">
<rect fill="white" x="-1" y="-1.29517" width="32" height="38"/>
<path d="M24.8438 18.7205C24.8438 18.8767 24.6094 23.4861 29.6875 25.908C28.75 28.7986 25.4688 35.2048 21.6406 35.2048C19.4531 35.2048 18.2031 33.7986 15.7031 33.7986C13.125 33.7986 11.7188 35.2048 9.76562 35.2048C6.01562 35.3611 2.42188 28.3298 1.40625 25.4392C0.625 23.2517 0.3125 21.1423 0.3125 19.1111C0.3125 12.158 4.92188 8.79858 9.29688 8.72046C11.4062 8.72046 14.0625 10.2048 15.2344 10.2048C16.3281 10.2048 19.375 8.40796 22.1875 8.64233C25.0781 8.87671 27.2656 9.97046 28.75 12.0798C26.1719 13.7205 24.8438 15.8298 24.8438 18.7205ZM20.4688 5.90796C18.9062 7.70483 17.0312 8.72046 15 8.56421C14.8438 6.45483 15.625 4.50171 17.0312 2.93921C18.2812 1.53296 20.4688 0.361084 22.3438 0.204834C22.3438 1.06421 22.5781 3.40796 20.4688 5.90796Z"/>
</mask>
<path d="M24.8438 18.7205C24.8438 18.8767 24.6094 23.4861 29.6875 25.908C28.75 28.7986 25.4688 35.2048 21.6406 35.2048C19.4531 35.2048 18.2031 33.7986 15.7031 33.7986C13.125 33.7986 11.7188 35.2048 9.76562 35.2048C6.01562 35.3611 2.42188 28.3298 1.40625 25.4392C0.625 23.2517 0.3125 21.1423 0.3125 19.1111C0.3125 12.158 4.92188 8.79858 9.29688 8.72046C11.4062 8.72046 14.0625 10.2048 15.2344 10.2048C16.3281 10.2048 19.375 8.40796 22.1875 8.64233C25.0781 8.87671 27.2656 9.97046 28.75 12.0798C26.1719 13.7205 24.8438 15.8298 24.8438 18.7205ZM20.4688 5.90796C18.9062 7.70483 17.0312 8.72046 15 8.56421C14.8438 6.45483 15.625 4.50171 17.0312 2.93921C18.2812 1.53296 20.4688 0.361084 22.3438 0.204834C22.3438 1.06421 22.5781 3.40796 20.4688 5.90796Z" fill="white"/>
<path d="M29.6875 25.908L30.6387 26.2165L30.9091 25.3827L30.118 25.0054L29.6875 25.908ZM9.76562 35.2048V34.2048H9.7448L9.72399 34.2057L9.76562 35.2048ZM1.40625 25.4392L2.34972 25.1077L2.34799 25.1029L1.40625 25.4392ZM9.29688 8.72046V7.72046H9.28795L9.27902 7.72062L9.29688 8.72046ZM22.1875 8.64233L22.1045 9.63888L22.1067 9.63906L22.1875 8.64233ZM28.75 12.0798L29.2869 12.9235L30.1707 12.3611L29.5678 11.5043L28.75 12.0798ZM20.4688 5.90796L21.2234 6.56414L21.2282 6.55852L21.233 6.55283L20.4688 5.90796ZM15 8.56421L14.0027 8.63808L14.0662 9.49533L14.9233 9.56126L15 8.56421ZM17.0312 2.93921L17.7746 3.60819L17.7787 3.60357L17.0312 2.93921ZM22.3438 0.204834H23.3438V-0.881966L22.2607 -0.791712L22.3438 0.204834ZM23.8438 18.7205C23.8438 18.6875 23.8402 18.844 23.8439 18.9989C23.848 19.1712 23.8605 19.4045 23.8932 19.6847C23.9584 20.2438 24.1048 20.9964 24.4299 21.8285C25.0877 23.5121 26.4631 25.4781 29.257 26.8106L30.118 25.0054C25.6163 22.8584 25.8438 18.8347 25.8438 18.7205H23.8438ZM28.7363 25.5995C28.2957 26.9578 27.2853 29.1864 25.937 31.0553C25.2642 31.988 24.5336 32.794 23.7809 33.3588C23.0276 33.9241 22.3112 34.2048 21.6406 34.2048V36.2048C22.8841 36.2048 24.0134 35.6848 24.9813 34.9586C25.9498 34.2319 26.8159 33.2556 27.559 32.2254C29.0428 30.1686 30.1418 27.7488 30.6387 26.2165L28.7363 25.5995ZM21.6406 34.2048C20.7647 34.2048 20.0772 33.9319 19.1535 33.5705C18.2435 33.2144 17.155 32.7986 15.7031 32.7986V34.7986C16.7512 34.7986 17.5378 35.0859 18.4247 35.433C19.2978 35.7746 20.329 36.2048 21.6406 36.2048V34.2048ZM15.7031 32.7986C14.2208 32.7986 13.0808 33.2084 12.1424 33.5679C11.17 33.9403 10.5187 34.2048 9.76562 34.2048V36.2048C10.9656 36.2048 11.9941 35.7663 12.8576 35.4356C13.7551 35.0919 14.6073 34.7986 15.7031 34.7986V32.7986ZM9.72399 34.2057C9.11243 34.2312 8.41283 33.9657 7.63299 33.3611C6.85866 32.7607 6.09132 31.891 5.3753 30.8848C3.94265 28.8716 2.83085 26.4771 2.34971 25.1077L0.46279 25.7707C0.997278 27.2919 2.19016 29.8584 3.74579 32.0444C4.52391 33.1378 5.42161 34.1773 6.40754 34.9417C7.38795 35.7018 8.54382 36.2566 9.80726 36.204L9.72399 34.2057ZM2.34799 25.1029C1.60814 23.0313 1.3125 21.0365 1.3125 19.1111H-0.6875C-0.6875 21.2482 -0.358136 23.4721 0.464508 25.7755L2.34799 25.1029ZM1.3125 19.1111C1.3125 15.8671 2.38157 13.5515 3.8752 12.0407C5.37975 10.5189 7.37188 9.75499 9.31473 9.7203L9.27902 7.72062C6.84687 7.76405 4.34681 8.71894 2.45293 10.6346C0.548119 12.5613 -0.6875 15.402 -0.6875 19.1111H1.3125ZM9.29688 9.72046C10.1613 9.72046 11.2032 10.0322 12.2907 10.4078C12.8025 10.5847 13.3454 10.7825 13.8115 10.9277C14.2609 11.0676 14.7751 11.2048 15.2344 11.2048V9.20483C15.1077 9.20483 14.8504 9.15648 14.4063 9.01814C13.9788 8.885 13.506 8.71172 12.9437 8.51746C11.8827 8.15094 10.5418 7.72046 9.29688 7.72046V9.72046ZM15.2344 11.2048C15.701 11.2048 16.2532 11.0298 16.7094 10.8742C16.9611 10.7884 17.2349 10.6893 17.5118 10.5897C17.7925 10.4888 18.0831 10.385 18.3849 10.2836C19.6134 9.87093 20.9138 9.53966 22.1045 9.63888L22.2705 7.64579C20.6487 7.51063 19.0194 7.96062 17.748 8.38775C17.4247 8.49634 17.1172 8.60621 16.8351 8.70763C16.5493 8.81038 16.2958 8.90222 16.064 8.98122C15.8317 9.06045 15.642 9.11953 15.4878 9.1583C15.4119 9.17741 15.352 9.18966 15.306 9.19692C15.2834 9.20049 15.2661 9.20254 15.2535 9.20366C15.2473 9.20422 15.2426 9.20452 15.2393 9.20467C15.2377 9.20475 15.2364 9.20479 15.2356 9.20481C15.2348 9.20483 15.2344 9.20483 15.2344 9.20483V11.2048ZM22.1067 9.63906C24.7647 9.85458 26.6523 10.8365 27.9322 12.6553L29.5678 11.5043C27.879 9.10442 25.3915 7.89884 22.2683 7.6456L22.1067 9.63906ZM28.2131 11.2362C26.8267 12.1184 25.7245 13.1599 24.9719 14.418C24.2153 15.6827 23.8438 17.1137 23.8438 18.7205H25.8438C25.8438 17.4366 26.1362 16.3675 26.6882 15.4448C27.2442 14.5154 28.0952 13.6819 29.2869 12.9235L28.2131 11.2362ZM19.7141 5.25178C18.2809 6.89998 16.69 7.69125 15.0767 7.56715L14.9233 9.56126C17.3725 9.74967 19.5316 8.50969 21.2234 6.56414L19.7141 5.25178ZM15.9973 8.49034C15.8639 6.6892 16.5248 4.99683 17.7745 3.60817L16.288 2.27024C14.7252 4.00659 13.8236 6.22047 14.0027 8.63808L15.9973 8.49034ZM17.7787 3.60357C18.8742 2.37114 20.8308 1.33438 22.4268 1.20138L22.2607 -0.791712C20.1067 -0.612207 17.6883 0.694783 16.2838 2.27485L17.7787 3.60357ZM21.3438 0.204834C21.3438 1.08254 21.5533 3.07186 19.7045 5.26309L21.233 6.55283C23.6029 3.74406 23.3438 1.04588 23.3438 0.204834H21.3438Z" fill="black" mask="url(#path-1-outside-1_6268_1600)"/>
</svg>
