<svg width="41" height="40" viewBox="0 0 41 40" fill="none" xmlns="http://www.w3.org/2000/svg">
<mask id="path-1-outside-1_6268_1606" maskUnits="userSpaceOnUse" x="-1" y="-1.29517" width="41" height="42" fill="black">
<rect fill="white" x="-1" y="-1.29517" width="41" height="42"/>
<path d="M10.2344 16.7361C11.7188 12.4392 16.0156 9.86108 20.625 10.1736L36.6406 11.033C35 7.75171 32.4219 4.93921 28.9844 2.98608C25.9375 1.18921 22.5781 0.329834 19.2969 0.329834C13.5938 0.407959 7.96875 2.90796 4.29688 7.59546L10.2344 16.7361ZM12.8125 19.7048C12.8125 16.1111 15.7031 13.2205 19.375 13.2205C22.9688 13.2205 25.8594 16.1111 25.8594 19.7048C25.8594 23.3767 22.9688 26.2673 19.375 26.2673C15.7031 26.2673 12.8125 23.3767 12.8125 19.7048ZM37.4219 12.7517C40.7812 21.5017 37.4219 31.658 28.9844 36.5017C25.625 38.4548 21.875 39.3142 18.2812 39.0798L27.0312 25.6423C29.5312 21.8142 29.4531 16.8142 26.4844 13.2986L37.4219 12.7517ZM10.3906 23.4548C12.5 27.5173 16.7969 29.9392 21.3281 29.158L16.3281 38.8455C7.03125 37.4392 0 29.3923 0 19.7048C0 15.7986 1.09375 12.2048 3.125 9.15796L10.3906 23.4548Z"/>
</mask>
<path d="M10.2344 16.7361C11.7188 12.4392 16.0156 9.86108 20.625 10.1736L36.6406 11.033C35 7.75171 32.4219 4.93921 28.9844 2.98608C25.9375 1.18921 22.5781 0.329834 19.2969 0.329834C13.5938 0.407959 7.96875 2.90796 4.29688 7.59546L10.2344 16.7361ZM12.8125 19.7048C12.8125 16.1111 15.7031 13.2205 19.375 13.2205C22.9688 13.2205 25.8594 16.1111 25.8594 19.7048C25.8594 23.3767 22.9688 26.2673 19.375 26.2673C15.7031 26.2673 12.8125 23.3767 12.8125 19.7048ZM37.4219 12.7517C40.7812 21.5017 37.4219 31.658 28.9844 36.5017C25.625 38.4548 21.875 39.3142 18.2812 39.0798L27.0312 25.6423C29.5312 21.8142 29.4531 16.8142 26.4844 13.2986L37.4219 12.7517ZM10.3906 23.4548C12.5 27.5173 16.7969 29.9392 21.3281 29.158L16.3281 38.8455C7.03125 37.4392 0 29.3923 0 19.7048C0 15.7986 1.09375 12.2048 3.125 9.15796L10.3906 23.4548Z" fill="white"/>
<path d="M10.2344 16.7361L9.39577 17.2808L10.5111 18.9978L11.1796 17.0626L10.2344 16.7361ZM20.625 10.1736L20.5574 11.1714L20.5714 11.1721L20.625 10.1736ZM36.6406 11.033L36.587 12.0315L38.304 12.1237L37.5351 10.5857L36.6406 11.033ZM28.9844 2.98608L28.4764 3.84745L28.4833 3.85155L28.4904 3.85554L28.9844 2.98608ZM19.2969 0.329834L19.2969 -0.67026L19.2832 -0.670072L19.2969 0.329834ZM4.29688 7.59546L3.50965 6.9788L3.06914 7.54115L3.45827 8.1402L4.29688 7.59546ZM37.4219 12.7517L38.3554 12.3933L38.0957 11.7168L37.3719 11.753L37.4219 12.7517ZM28.9844 36.5017L28.4865 35.6344L28.4818 35.6372L28.9844 36.5017ZM18.2812 39.0798L17.4433 38.5342L16.5106 39.9665L18.2162 40.0777L18.2812 39.0798ZM27.0312 25.6423L26.194 25.0955L26.1933 25.0967L27.0312 25.6423ZM26.4844 13.2986L26.4344 12.2998L24.4173 12.4007L25.7203 13.9438L26.4844 13.2986ZM10.3906 23.4548L9.49911 23.9079L9.50313 23.9156L10.3906 23.4548ZM21.3281 29.158L22.2167 29.6166L23.1383 27.8311L21.1582 28.1725L21.3281 29.158ZM16.3281 38.8455L16.1786 39.8342L16.8878 39.9415L17.2167 39.3041L16.3281 38.8455ZM3.125 9.15796L4.01649 8.70491L3.24164 7.18022L2.29295 8.60326L3.125 9.15796ZM11.1796 17.0626C12.5012 13.2369 16.3497 10.886 20.5574 11.1713L20.6926 9.17587C15.6816 8.83614 10.9363 11.6415 9.28918 16.4096L11.1796 17.0626ZM20.5714 11.1721L36.587 12.0315L36.6942 10.0344L20.6786 9.17502L20.5714 11.1721ZM37.5351 10.5857C35.8077 7.13105 33.092 4.16982 29.4784 2.11663L28.4904 3.85554C31.7518 5.7086 34.1923 8.37237 35.7462 11.4802L37.5351 10.5857ZM29.4924 2.12472C26.2878 0.234838 22.7523 -0.670166 19.2969 -0.670166V1.32983C22.4039 1.32983 25.5872 2.14358 28.4764 3.84745L29.4924 2.12472ZM19.2832 -0.670072C13.3043 -0.58817 7.38402 2.03279 3.50965 6.9788L5.0841 8.21212C8.55348 3.78313 13.8832 1.40409 19.3106 1.32974L19.2832 -0.670072ZM3.45827 8.1402L9.39577 17.2808L11.073 16.1913L5.13548 7.05072L3.45827 8.1402ZM13.8125 19.7048C13.8125 16.6712 16.2476 14.2205 19.375 14.2205V12.2205C15.1587 12.2205 11.8125 15.551 11.8125 19.7048H13.8125ZM19.375 14.2205C22.4165 14.2205 24.8594 16.6634 24.8594 19.7048H26.8594C26.8594 15.5588 23.521 12.2205 19.375 12.2205V14.2205ZM24.8594 19.7048C24.8594 22.8323 22.4087 25.2673 19.375 25.2673V27.2673C23.5288 27.2673 26.8594 23.9212 26.8594 19.7048H24.8594ZM19.375 25.2673C16.2554 25.2673 13.8125 22.8244 13.8125 19.7048H11.8125C11.8125 23.929 15.1508 27.2673 19.375 27.2673V25.2673ZM36.4883 13.1101C39.6753 21.4111 36.4864 31.0419 28.4865 35.6345L29.4822 37.369C38.3573 32.274 41.8872 21.5923 38.3554 12.3933L36.4883 13.1101ZM28.4818 35.6372C25.2908 37.4924 21.738 38.3031 18.3463 38.082L18.2162 40.0777C22.012 40.3253 25.9592 39.4173 29.487 37.3662L28.4818 35.6372ZM19.1192 39.6255L27.8692 26.188L26.1933 25.0967L17.4433 38.5342L19.1192 39.6255ZM27.8685 26.1891C30.5866 22.027 30.5289 16.5382 27.2484 12.6534L25.7203 13.9438C28.3774 17.0902 28.4759 21.6014 26.194 25.0955L27.8685 26.1891ZM26.5343 14.2973L37.4718 13.7505L37.3719 11.753L26.4344 12.2998L26.5343 14.2973ZM9.50313 23.9156C11.7903 28.3207 16.4908 31.0067 21.498 30.1434L21.1582 28.1725C17.1029 28.8717 13.2097 26.714 11.2781 22.994L9.50313 23.9156ZM20.4395 28.6993L15.4395 38.3868L17.2167 39.3041L22.2167 29.6166L20.4395 28.6993ZM16.4777 37.8567C7.6707 36.5246 1 28.8987 1 19.7048H-1C-1 29.8859 6.3918 38.3539 16.1786 39.8342L16.4777 37.8567ZM1 19.7048C1 15.9903 2.03843 12.5906 3.95705 9.71266L2.29295 8.60326C0.149067 11.8191 -1 15.6069 -1 19.7048H1ZM2.23351 9.61101L9.49914 23.9079L11.2821 23.0018L4.01649 8.70491L2.23351 9.61101Z" fill="black" mask="url(#path-1-outside-1_6268_1606)"/>
</svg>
