<svg width="76" height="58" viewBox="0 0 76 58" fill="none" xmlns="http://www.w3.org/2000/svg">
<path d="M3.32941 0.786556C2.37237 1.15114 1.33936 2.12338 0.91401 3.05005C0.594995 3.74884 0.594995 3.76403 0.549421 21.3707C0.519038 37.5037 0.53423 39.0532 0.762098 39.7976C1.0963 40.861 2.08373 41.9548 3.13193 42.4257C3.92187 42.7903 4.02821 42.7903 9.10208 42.8358C11.6466 42.8586 12.9417 42.87 13.6518 42.8358C14.362 42.8017 14.4874 42.7219 14.6924 42.5624C15.1634 42.1978 15.209 41.8636 14.8596 41.3775C14.6317 41.0433 14.6165 41.0433 9.74011 41.0433C6.83859 41.0433 4.62067 40.9825 4.28646 40.8914C3.55728 40.6787 2.81291 40.0559 2.55466 39.4178C2.37237 39.0077 2.34198 35.8935 2.34198 21.6289V4.32611L2.69138 3.67289C2.93444 3.21715 3.25346 2.89813 3.70919 2.65508L4.36242 2.30568H33.089H61.8308L62.4992 2.63988C63.6386 3.21715 63.8664 3.80961 63.8664 6.20982C63.8664 8.03277 63.8968 8.26064 64.1702 8.53408C64.5652 8.92905 65.0058 8.91386 65.4007 8.51889C65.7046 8.21506 65.7198 8.06315 65.659 5.906C65.6134 3.67289 65.5982 3.56655 65.1729 2.7918C64.6412 1.84994 63.8512 1.16634 62.803 0.771366C62.0587 0.497921 61.132 0.482731 33.0586 0.497925C4.77258 0.497925 4.07378 0.497921 3.32941 0.786556Z" fill="url(#paint0_linear_4363_1804)"/>
<path d="M13.6518 42.8358C14.362 42.8017 14.4874 42.7219 14.6924 42.5624C15.1634 42.1978 15.209 41.8636 14.8596 41.3775C14.6317 41.0433 14.6165 41.0433 9.74011 41.0433L27.1616 40.9594V42.8358H13.6518Z" fill="url(#paint1_linear_4363_1804)"/>
<path d="M51.5466 10.5545C50.1186 11.147 49.2527 11.9521 48.5691 13.3193C47.9919 14.4434 47.9159 15.3397 47.9159 20.7022V25.8672L48.2957 26.2318C48.7362 26.6876 48.9793 26.7028 49.4199 26.3382C49.7237 26.0799 49.7389 25.9432 49.7693 20.4592L49.8148 14.8384L50.2706 14.0181C50.7567 13.1522 51.3188 12.6357 52.215 12.2559C53.0202 11.9217 70.2318 11.9065 71.0522 12.2559C71.8117 12.5749 72.4649 13.1674 72.9511 13.9877L73.3612 14.6865V33.6755C73.3612 52.1481 73.346 52.6797 73.0726 53.257C72.6928 54.0166 71.9788 54.7306 71.2193 55.1103C70.6572 55.3838 70.2166 55.399 61.588 55.399C52.5948 55.399 52.5492 55.399 51.9264 55.0648C51.5922 54.8825 51.0605 54.4571 50.7567 54.1229C49.7389 52.9988 49.7389 52.938 49.7389 43.3675V34.8149H49.7502H52.8986C54.6304 34.8149 56.1344 34.7541 56.2407 34.6933C56.3774 34.587 56.423 34.0097 56.3926 32.2931L56.347 30.0296L50.7263 29.9537L49.7567 29.9406L47.9159 29.9157L45.1055 29.8777L45.06 28.0548C45.0448 27.0522 44.9688 26.1863 44.9081 26.1255C44.8321 26.0495 43.5257 27.0977 41.9762 28.4498C38.1632 31.807 37.8897 32.0501 37.8897 32.3691C37.8897 32.6577 44.5435 38.6127 44.8625 38.6127C44.9688 38.6127 45.0296 37.9746 45.0296 36.7138V34.8149H46.4728H47.9159V37.9291V41.0433H33.1956C16.9866 41.0433 17.9892 40.9825 17.9892 41.9547C17.9892 42.8206 18.2171 42.8662 22.8808 42.8662H27.104V46.9678V51.0695H25.7671C24.6582 51.0695 24.3695 51.1151 24.172 51.3429C23.8226 51.7227 23.853 52.224 24.2176 52.5886C24.5214 52.8924 24.7189 52.8924 33.0741 52.8924C42.4775 52.8924 42.2952 52.9076 42.2952 51.9961C42.2952 51.267 41.9002 51.0695 40.4266 51.0695H39.105V46.9678V42.8662H43.4953H47.9007L47.9463 47.8337C47.9919 52.6038 48.0223 52.8468 48.3565 53.6824C48.8274 54.9129 49.9667 56.113 51.2276 56.7206L52.2454 57.2219L61.2538 57.2675C71.2952 57.3131 71.2344 57.3131 72.7536 56.3104C73.665 55.6876 74.2271 55.004 74.774 53.8343L75.1842 52.9684V33.7515V14.5346L74.85 13.6991C74.379 12.5445 73.3612 11.4356 72.1915 10.7976L71.2344 10.2811L61.8159 10.2507L52.3973 10.2051L51.5466 10.5545Z" fill="url(#paint2_linear_4363_1804)"/>
<path d="M47.9159 25.8672L48.2957 26.2318C48.7362 26.6876 48.9793 26.7028 49.4199 26.3382C49.7237 26.0799 49.7389 25.9432 49.7693 20.4592L49.7567 29.9406L47.9159 29.9157V25.8672Z" fill="url(#paint3_linear_4363_1804)"/>
<path d="M37.9958 11.3596C37.935 11.4203 37.8895 12.2862 37.8895 13.2737V15.0662H32.3599C27.8329 15.0662 26.7999 15.1118 26.6632 15.2789C26.5416 15.4156 26.4961 16.1904 26.5264 17.6639L26.572 19.8515L32.2383 19.897L37.8895 19.9274V21.8263C37.8895 23.4214 37.9198 23.7252 38.1173 23.7252C38.2541 23.7252 39.8491 22.4036 41.6873 20.8085C44.1331 18.6514 45.0293 17.7855 45.0293 17.5424C45.0293 17.2993 44.1331 16.4334 41.6721 14.2763C39.8339 12.666 38.2692 11.3292 38.2085 11.2988C38.1477 11.2836 38.0566 11.314 37.9958 11.3596Z" fill="url(#paint4_linear_4363_1804)"/>
<path d="M57.1675 15.203C56.5903 15.7802 56.5751 16.5246 57.1068 17.1019L57.4713 17.4968H61.5122C64.1251 17.4968 65.6594 17.4361 65.8721 17.3297C66.343 17.0715 66.6317 16.2511 66.4342 15.6891C66.1303 14.8232 65.8265 15.0331 61.5122 15.0331H57.5581L57.1675 15.203Z" fill="url(#paint5_linear_4363_1804)"/>
<defs>
<linearGradient id="paint0_linear_4363_1804" x1="65.6875" y1="21.4322" x2="0.53772" y2="21.4322" gradientUnits="userSpaceOnUse">
<stop stop-color="#A333DA"/>
<stop offset="1" stop-color="#48175B"/>
</linearGradient>
<linearGradient id="paint1_linear_4363_1804" x1="65.6875" y1="21.4322" x2="0.53772" y2="21.4322" gradientUnits="userSpaceOnUse">
<stop stop-color="#A333DA"/>
<stop offset="1" stop-color="#48175B"/>
</linearGradient>
<linearGradient id="paint2_linear_4363_1804" x1="75.1842" y1="33.473" x2="17.9771" y2="33.473" gradientUnits="userSpaceOnUse">
<stop stop-color="#A333DA"/>
<stop offset="1" stop-color="#48175B"/>
</linearGradient>
<linearGradient id="paint3_linear_4363_1804" x1="75.1842" y1="33.473" x2="17.9771" y2="33.473" gradientUnits="userSpaceOnUse">
<stop stop-color="#A333DA"/>
<stop offset="1" stop-color="#48175B"/>
</linearGradient>
<linearGradient id="paint4_linear_4363_1804" x1="45.0293" y1="17.4386" x2="26.5173" y2="17.4386" gradientUnits="userSpaceOnUse">
<stop stop-color="#A333DA"/>
<stop offset="1" stop-color="#48175B"/>
</linearGradient>
<linearGradient id="paint5_linear_4363_1804" x1="66.4972" y1="16.2395" x2="56.7208" y2="16.2395" gradientUnits="userSpaceOnUse">
<stop stop-color="#A333DA"/>
<stop offset="1" stop-color="#48175B"/>
</linearGradient>
</defs>
</svg>
