<svg width="1000" height="1000" viewBox="0 0 1000 1000" fill="none" xmlns="http://www.w3.org/2000/svg">
<g opacity="0.1">
<path opacity="0.3" d="M518.667 764.445H570L766.667 650.667L594 548.667L470.444 616.445L518.667 764.445Z" fill="#CFC4B8"/>
<path d="M330.444 607.111L339.778 601.778L352.222 608.889L342.889 614.222L330.444 607.111Z" fill="#E4E3EE"/>
<path d="M354 603.111L363.111 597.778L353.778 613.111L344.667 618.444L354 603.111Z" fill="#B7B6E3"/>
<path d="M375.778 612.444L384.889 607.111V610.222L375.778 615.556V612.444Z" fill="#919DD6"/>
<path d="M352.222 598.889L361.555 593.556L384.889 607.111L375.778 612.444L352.222 598.889Z" fill="#E4E3EE"/>
<path d="M375.778 612.444V615.556L354 603.111L344.667 618.444L330.444 610.222V607.111L342.889 614.222L352.222 598.889L375.778 612.444Z" fill="#919DD6"/>
<path d="M364.667 587.555L373.778 582.222L386.222 589.555L377.111 594.889L364.667 587.555Z" fill="#E4E3EE"/>
<path d="M388 583.555L397.333 578.222L387.778 593.555L378.667 598.889L388 583.555Z" fill="#B7B6E3"/>
<path d="M409.778 592.889L418.889 587.556V590.889L409.778 596.222V592.889Z" fill="#919DD6"/>
<path d="M386.445 579.555L395.556 574.222L418.889 587.556L409.778 592.889L386.445 579.555Z" fill="#E4E3EE"/>
<path d="M409.778 592.889V596.222L388 583.556L378.667 598.889L364.667 590.889V587.556L377.111 594.889L386.444 579.556L409.778 592.889Z" fill="#919DD6"/>
<path d="M397.111 568.222L406.444 562.889L418.889 570L409.556 575.333L397.111 568.222Z" fill="#E4E3EE"/>
<path d="M420.667 564.222L429.778 558.889L420.444 574.222L411.333 579.556L420.667 564.222Z" fill="#B7B6E3"/>
<path d="M442.444 573.556L451.555 568.222V571.333L442.444 576.667V573.556Z" fill="#919DD6"/>
<path d="M419.111 560L428.222 554.667L451.556 568.222L442.444 573.556L419.111 560Z" fill="#E4E3EE"/>
<path d="M442.444 573.556V576.667L420.667 564.222L411.333 579.556L397.111 571.333V568.222L409.556 575.333L419.111 560L442.444 573.556Z" fill="#919DD6"/>
<path d="M296.889 628L306 622.667L318.444 630L309.333 635.333L296.889 628Z" fill="#E4E3EE"/>
<path d="M320.444 624.222L329.556 618.889L320.222 634.222L310.889 639.556L320.444 624.222Z" fill="#B7B6E3"/>
<path d="M342 633.556L351.111 628.222V631.333L342 636.667V633.556Z" fill="#919DD6"/>
<path d="M318.667 620L327.778 614.667L351.111 628.222L342 633.556L318.667 620Z" fill="#E4E3EE"/>
<path d="M342 633.556V636.667L320.444 624.222L310.889 639.556L296.889 631.333V628L309.333 635.333L318.667 620L342 633.556Z" fill="#919DD6"/>
<path d="M433.556 547.778L442.667 542.444L455.111 549.556L446 554.889L433.556 547.778Z" fill="#E4E3EE"/>
<path d="M456.889 543.778L466.222 538.444L456.667 553.778L447.556 559.111L456.889 543.778Z" fill="#B7B6E3"/>
<path d="M478.667 553.111L487.778 547.778V550.889L478.667 556.222V553.111Z" fill="#919DD6"/>
<path d="M455.333 539.556L464.445 534.222L487.778 547.778L478.667 553.111L455.333 539.556Z" fill="#E4E3EE"/>
<path d="M478.667 553.111V556.222L456.889 543.778L447.556 559.111L433.556 550.889V547.778L446 554.889L455.333 539.556L478.667 553.111Z" fill="#919DD6"/>
<path d="M468.222 527.778L477.555 522.444L490 529.778L480.667 535.111L468.222 527.778Z" fill="#E4E3EE"/>
<path d="M491.778 523.778L500.889 518.667L491.555 534L482.444 539.111L491.778 523.778Z" fill="#B7B6E3"/>
<path d="M513.555 533.333L522.667 528V531.111L513.555 536.444V533.333Z" fill="#919DD6"/>
<path d="M490.222 519.778L499.333 514.444L522.667 528L513.556 533.333L490.222 519.778Z" fill="#E4E3EE"/>
<path d="M513.556 533.333V536.444L491.778 523.778L482.444 539.111L468.222 531.111V527.778L480.667 535.111L490.222 519.778L513.556 533.333Z" fill="#919DD6"/>
<path d="M703.778 607.556L694.667 602.222L682.222 609.333L691.334 614.667L703.778 607.556Z" fill="#E4E3EE"/>
<path d="M680.445 603.556L671.111 598.222L680.667 613.556L689.778 618.889L680.445 603.556Z" fill="#B7B6E3"/>
<path d="M658.667 612.889L649.556 607.556V610.667L658.667 616V612.889Z" fill="#919DD6"/>
<path d="M682 599.333L672.889 594L649.556 607.556L658.667 612.889L682 599.333Z" fill="#E4E3EE"/>
<path d="M658.667 612.889V616L680.445 603.556L689.778 618.889L703.778 610.667V607.556L691.333 614.667L682 599.333L658.667 612.889Z" fill="#919DD6"/>
<path d="M669.778 588L660.667 582.667L648.222 590L657.333 595.333L669.778 588Z" fill="#E4E3EE"/>
<path d="M646.222 584L637.111 578.667L646.444 594L655.778 599.333L646.222 584Z" fill="#B7B6E3"/>
<path d="M624.667 593.333L615.333 588V591.333L624.667 596.667V593.333Z" fill="#919DD6"/>
<path d="M648 580L638.889 574.667L615.333 588L624.667 593.333L648 580Z" fill="#E4E3EE"/>
<path d="M624.667 593.333V596.667L646.222 584L655.778 599.333L669.778 591.333V588L657.333 595.333L648 580L624.667 593.333Z" fill="#919DD6"/>
<path d="M637.111 568.667L628 563.333L615.556 570.445L624.667 575.778L637.111 568.667Z" fill="#E4E3EE"/>
<path d="M613.778 564.667L604.445 559.333L613.778 574.667L623.111 580L613.778 564.667Z" fill="#B7B6E3"/>
<path d="M592 574L582.889 568.667V571.778L592 577.111V574Z" fill="#919DD6"/>
<path d="M615.333 560.445L606.222 555.111L582.889 568.667L592 574L615.333 560.445Z" fill="#E4E3EE"/>
<path d="M592 574V577.111L613.778 564.667L623.111 580L637.111 571.778V568.667L624.667 575.778L615.333 560.445L592 574Z" fill="#919DD6"/>
<path d="M737.556 628.667L728.444 623.333L716 630.445L725.111 635.778L737.556 628.667Z" fill="#E4E3EE"/>
<path d="M714 624.667L704.889 619.333L714.222 634.667L723.333 640L714 624.667Z" fill="#B7B6E3"/>
<path d="M692.444 634L683.111 628.667V631.778L692.444 637.111V634Z" fill="#919DD6"/>
<path d="M715.778 620.444L706.444 615.111L683.111 628.667L692.444 634L715.778 620.444Z" fill="#E4E3EE"/>
<path d="M692.444 634V637.111L714 624.667L723.333 640L737.555 631.778V628.667L725.111 635.778L715.778 620.444L692.444 634Z" fill="#919DD6"/>
<path d="M600.889 548.222L591.778 542.889L579.333 550L588.445 555.333L600.889 548.222Z" fill="#E4E3EE"/>
<path d="M577.334 544.222L568.222 538.889L577.556 554.222L586.889 559.556L577.334 544.222Z" fill="#B7B6E3"/>
<path d="M555.778 553.556L546.445 548.222V551.333L555.778 556.667V553.556Z" fill="#919DD6"/>
<path d="M579.111 540L570 534.667L546.445 548.222L555.778 553.556L579.111 540Z" fill="#E4E3EE"/>
<path d="M555.778 553.556V556.667L577.333 544.222L586.889 559.556L600.889 551.333V548.222L588.444 555.333L579.111 540L555.778 553.556Z" fill="#919DD6"/>
<path d="M566 528.444L556.889 523.111L544.445 530.222L553.556 535.556L566 528.444Z" fill="#E4E3EE"/>
<path d="M542.444 524.445L533.333 519.111L542.667 534.445L552 539.778L542.444 524.445Z" fill="#B7B6E3"/>
<path d="M520.889 533.778L511.778 528.444V531.556L520.889 536.889V533.778Z" fill="#919DD6"/>
<path d="M544.222 520.222L535.111 514.889L511.778 528.444L520.889 533.778L544.222 520.222Z" fill="#E4E3EE"/>
<path d="M520.889 533.778V536.889L542.444 524.444L552 539.778L566 531.556V528.445L553.556 535.556L544.222 520.222L520.889 533.778Z" fill="#919DD6"/>
<path d="M715.333 628.222L715.111 650.222L518.667 764.444V742.445L715.333 628.222Z" fill="#8B8776"/>
<path d="M518.667 742.445V764.444L320.889 650.222V628.222L518.667 742.445Z" fill="#8B8776"/>
<path d="M715.333 628.222L518.667 742.444L320.889 628.222L517.333 514L715.333 628.222Z" fill="#01012c"/>
<path d="M668.222 622.667V633.556L518.444 720.667V709.556L668.222 622.667Z" fill="#D4D5F0"/>
<path d="M518.444 709.556V720.667L368 633.556V622.667L518.444 709.556Z" fill="#C4C3EC"/>
<path d="M668.222 622.667L518.444 709.556L368 622.667L517.556 535.778L668.222 622.667Z" fill="white"/>
<path d="M304.667 684.889L295.555 679.556L304.889 653.333L314 658.667L304.667 684.889Z" fill="#C4C3EC"/>
<path d="M314 658.667L304.889 653.333L328.222 640L337.333 645.333L314 658.667Z" fill="#E4E3EE"/>
<path d="M292.222 692L283.111 686.667L295.556 679.556L304.667 684.889L292.222 692Z" fill="#E4E3EE"/>
<path d="M292.222 695.333L283.111 690V686.667L292.222 692V695.333Z" fill="#B7B6E3"/>
<path d="M337.333 645.333V648.444L315.778 660.889L306.444 687.111L292.222 695.333V692L304.667 684.889L314 658.667L337.333 645.333Z" fill="#919DD6"/>
<path d="M339.111 704.667L330 699.333L339.333 673.111L348.444 678.444L339.111 704.667Z" fill="#C4C3EC"/>
<path d="M348.444 678.444L339.333 673.111L362.667 659.778L371.778 665.111L348.444 678.444Z" fill="#E4E3EE"/>
<path d="M326.667 711.778L317.555 706.444L330 699.333L339.111 704.667L326.667 711.778Z" fill="#E4E3EE"/>
<path d="M326.667 714.889L317.555 709.555V706.444L326.667 711.778V714.889Z" fill="#B7B6E3"/>
<path d="M371.778 665.111V668.222L350.222 680.667L340.889 706.889L326.667 714.889V711.778L339.111 704.667L348.444 678.444L371.778 665.111Z" fill="#919DD6"/>
<path d="M373.333 724.444L364.222 719.111L373.556 693.111L382.667 698.444L373.333 724.444Z" fill="#C4C3EC"/>
<path d="M382.667 698.444L373.556 693.111L396.889 679.556L406 684.889L382.667 698.444Z" fill="#E4E3EE"/>
<path d="M360.889 731.778L351.778 726.444L364.222 719.111L373.333 724.444L360.889 731.778Z" fill="#E4E3EE"/>
<path d="M360.889 734.889L351.778 729.556V726.444L360.889 731.778V734.889Z" fill="#B7B6E3"/>
<path d="M406 684.889V688.222L384.444 700.667L375.111 726.667L360.889 734.889V731.778L373.333 724.444L382.667 698.444L406 684.889Z" fill="#919DD6"/>
<path d="M407.555 744.444L398.444 739.111L407.778 712.889L416.889 718.222L407.555 744.444Z" fill="#C4C3EC"/>
<path d="M416.889 718.222L407.778 712.889L431.111 699.333L440.222 704.667L416.889 718.222Z" fill="#E4E3EE"/>
<path d="M395.111 751.556L386 746.222L398.444 739.111L407.556 744.444L395.111 751.556Z" fill="#E4E3EE"/>
<path d="M395.111 754.667L386 749.333V746.222L395.111 751.556V754.667Z" fill="#B7B6E3"/>
<path d="M440.222 704.667V708L418.667 720.445L409.333 746.444L395.111 754.667V751.556L407.556 744.445L416.889 718.222L440.222 704.667Z" fill="#919DD6"/>
<path d="M442.222 764L433.111 758.667L442.444 732.667L451.556 738L442.222 764Z" fill="#C4C3EC"/>
<path d="M451.556 738L442.445 732.667L465.778 719.111L474.889 724.444L451.556 738Z" fill="#E4E3EE"/>
<path d="M429.778 771.111L420.667 765.778L433.111 758.667L442.222 764L429.778 771.111Z" fill="#E4E3EE"/>
<path d="M429.778 774.444L420.667 769.111V765.778L429.778 771.111V774.444Z" fill="#B7B6E3"/>
<path d="M474.889 724.444V727.556L453.111 740L444 766.222L429.778 774.444V771.111L442.222 764L451.556 738L474.889 724.444Z" fill="#919DD6"/>
<path d="M476.222 783.778L467.111 778.444L476.222 752.444L485.556 757.778L476.222 783.778Z" fill="#C4C3EC"/>
<path d="M485.555 757.778L476.222 752.444L499.778 738.889L508.889 744.222L485.555 757.778Z" fill="#E4E3EE"/>
<path d="M463.778 791.111L454.667 785.778L467.111 778.444L476.222 783.778L463.778 791.111Z" fill="#E4E3EE"/>
<path d="M463.778 794.222L454.667 788.889V785.778L463.778 791.111V794.222Z" fill="#B7B6E3"/>
<path d="M508.889 744.222V747.333L487.111 760L478 786L463.778 794.222V791.111L476.222 783.778L485.556 757.778L508.889 744.222Z" fill="#919DD6"/>
<path d="M732 685.111L741.333 679.778L732 653.778L722.889 659.111L732 685.111Z" fill="#C4C3EC"/>
<path d="M722.889 659.111L732 653.778L708.667 640.222L699.333 645.556L722.889 659.111Z" fill="#E4E3EE"/>
<path d="M744.444 692.445L753.778 687.111L741.333 679.778L732 685.111L744.444 692.445Z" fill="#E4E3EE"/>
<path d="M744.444 695.556L753.778 690.222V687.111L744.444 692.445V695.556Z" fill="#B7B6E3"/>
<path d="M699.333 645.556V648.889L721.111 661.333L730.444 687.333L744.444 695.556V692.445L732 685.111L722.889 659.111L699.333 645.556Z" fill="#919DD6"/>
<path d="M697.555 704.889L706.667 699.556L697.555 673.556L688.222 678.889L697.555 704.889Z" fill="#C4C3EC"/>
<path d="M688.222 678.889L697.556 673.556L674.222 660L664.889 665.333L688.222 678.889Z" fill="#E4E3EE"/>
<path d="M710 712.222L719.111 706.889L706.667 699.556L697.556 704.889L710 712.222Z" fill="#E4E3EE"/>
<path d="M710 715.333L719.111 710V706.889L710 712.222V715.333Z" fill="#B7B6E3"/>
<path d="M664.889 665.333V668.444L686.667 681.111L696 707.111L710 715.333V712.222L697.556 704.889L688.222 678.889L664.889 665.333Z" fill="#919DD6"/>
<path d="M663.334 724.889L672.667 719.556L663.334 693.556L654.222 698.889L663.334 724.889Z" fill="#C4C3EC"/>
<path d="M654.222 698.889L663.333 693.556L640 680L630.667 685.333L654.222 698.889Z" fill="#E4E3EE"/>
<path d="M675.778 732L684.889 726.667L672.667 719.556L663.333 724.889L675.778 732Z" fill="#E4E3EE"/>
<path d="M675.778 735.333L684.889 730V726.667L675.778 732V735.333Z" fill="#B7B6E3"/>
<path d="M630.667 685.333V688.444L652.445 701.111L661.778 727.111L675.778 735.333V732L663.333 724.889L654.222 698.889L630.667 685.333Z" fill="#919DD6"/>
<path d="M629.111 744.667L638.444 739.333L629.111 713.333L620 718.667L629.111 744.667Z" fill="#C4C3EC"/>
<path d="M620 718.667L629.111 713.333L605.778 699.778L596.444 705.111L620 718.667Z" fill="#E4E3EE"/>
<path d="M641.556 751.778L650.889 746.444L638.444 739.333L629.111 744.667L641.556 751.778Z" fill="#E4E3EE"/>
<path d="M641.555 755.111L650.889 749.778V746.444L641.555 751.778V755.111Z" fill="#B7B6E3"/>
<path d="M596.444 705.111V708.222L618.222 720.889L627.555 746.889L641.555 755.111V751.778L629.111 744.667L620 718.667L596.444 705.111Z" fill="#919DD6"/>
<path d="M594.444 764.444L603.778 759.111L594.444 732.889L585.333 738.222L594.444 764.444Z" fill="#C4C3EC"/>
<path d="M585.333 738.222L594.444 732.889L571.111 719.333L562 724.667L585.333 738.222Z" fill="#E4E3EE"/>
<path d="M606.889 771.556L616.222 766.222L603.778 759.111L594.444 764.444L606.889 771.556Z" fill="#E4E3EE"/>
<path d="M606.889 774.667L616.222 769.333V766.222L606.889 771.556V774.667Z" fill="#B7B6E3"/>
<path d="M562 724.667V728L583.556 740.445L592.889 766.667L606.889 774.667V771.556L594.444 764.445L585.333 738.222L562 724.667Z" fill="#919DD6"/>
<path d="M560.667 784.222L569.778 778.889L560.444 752.667L551.333 758L560.667 784.222Z" fill="#C4C3EC"/>
<path d="M551.333 758L560.444 752.667L537.111 739.333L528 744.667L551.333 758Z" fill="#E4E3EE"/>
<path d="M573.111 791.333L582.222 786L569.778 778.889L560.667 784.222L573.111 791.333Z" fill="#E4E3EE"/>
<path d="M573.111 794.444L582.222 789.333V786L573.111 791.333V794.444Z" fill="#B7B6E3"/>
<path d="M528 744.667V747.778L549.556 760.222L558.889 786.444L573.111 794.445V791.333L560.667 784.222L551.333 758L528 744.667Z" fill="#919DD6"/>
<path d="M419.778 622.667L427.333 626.889L517.778 679.111V565.778L419.778 622.667Z" fill="#D4D5F0"/>
<path d="M517.778 565.778V679.111L518.444 679.556L608.889 626.889L616.222 622.667L517.778 565.778Z" fill="#C4C3EC"/>
<path d="M608.889 626.889L518.444 679.556L427.333 626.889L517.778 574.222L608.889 626.889Z" fill="#01012c"/>
<path d="M608.889 626.889L518.444 679.556L427.333 626.889L517.778 574.222L608.889 626.889Z" fill="#01012c"/>
<path d="M519.111 851.111L193.778 663.333L517.111 475.556L842.222 663.333L519.111 851.111ZM202.444 663.333L519.111 846.222L833.555 663.556L516.889 480.667L202.444 663.333Z" fill="#01012c"/>
<path d="M244.222 690L220.222 703.778C219.778 704 219.333 704 219.111 703.778L194.444 689.556L114.444 735.778L106.889 740C106.667 740 106.444 740.222 106.222 740.222C105.778 740.222 105.556 740 105.333 739.556C105.111 739.111 105.111 738.222 105.778 738L112 734.444L193.778 687.333C194.222 687.111 194.667 687.111 194.889 687.333L219.556 701.556L242 688.667L244.222 690Z" fill="#01012c"/>
<path d="M438.222 799.778L434.444 802L412.667 814.667C412.222 814.889 411.778 814.889 411.555 814.667L386.889 800.444L355.778 818.444L353.555 819.778L306.222 847.111L299.333 851.111C299.111 851.111 298.889 851.333 298.667 851.333C298.222 851.333 298 851.111 297.778 850.667C297.555 850.222 297.555 849.333 298.222 849.111L304.222 845.556L351.111 818.444L353.333 817.111L386.222 798.222C386.667 798 387.111 798 387.333 798.222L412 812.444L432.222 800.889L436 798.667L438.222 799.778Z" fill="#01012c"/>
<path d="M363.333 756.667L359.556 758.889L338.222 771.111C337.778 771.333 337.333 771.333 337.111 771.111L312.444 756.889L280.667 775.111L278.444 776.444L232.889 802.667L224.889 807.333C224.667 807.333 224.444 807.556 224.222 807.556C223.778 807.556 223.556 807.333 223.333 806.889C223.111 806.445 223.111 805.556 223.778 805.333L231.111 801.111L276.222 775.111L278.444 773.778L311.778 754.444C312.222 754.222 312.667 754.222 312.889 754.444L337.556 768.667L357.111 757.333L360.889 755.111L363.333 756.667Z" fill="#01012c"/>
<path d="M303.778 722L300 724.222L219.555 770.667L213.555 774.222C213.333 774.222 213.111 774.444 212.889 774.444C212.444 774.444 212.222 774.222 212 773.778C211.778 773.333 211.778 772.444 212.444 772.222L217.555 769.333L297.778 722.889L301.555 720.667L303.778 722Z" fill="#01012c"/>
<path d="M465.778 815.556L462 817.778L382.667 863.556L376.444 867.111C376.222 867.111 376 867.333 375.778 867.333C375.333 867.333 375.111 867.111 374.889 866.667C374.667 866.222 374.667 865.333 375.333 865.111L380.222 862.222L459.555 816.445L463.333 814.222L465.778 815.556Z" fill="#01012c"/>
<path d="M388.889 771.333L385.111 773.556L331.555 804.444L329.333 805.778L305.111 819.778L298.666 823.556C298.444 823.556 298.222 823.778 298 823.778C297.555 823.778 297.333 823.556 297.111 823.111C296.889 822.667 296.889 821.778 297.555 821.556L302.889 818.444L327.111 804.444L329.333 803.111L382.889 772.222L386.666 770L388.889 771.333Z" fill="#01012c"/>
<path d="M387.778 836.889L357.778 854.222L349.333 859.111L348.222 857.111L355.778 852.667L383.333 836.889L353.333 819.556L351.111 818.222L329.333 805.778L327.111 804.445L278.444 776.445L276.222 775.111L256.444 763.778L312 731.333L315.778 729.111L318 730.445L314.222 732.667L261.111 763.778L278.444 773.778L280.889 775.111L329.333 803.111L331.555 804.445L353.333 817.111L355.555 818.222L387.778 836.889Z" fill="#01012c"/>
<path d="M113.555 735.111C116.889 737.111 116.889 740.222 113.555 742.222C110.222 744.222 104.667 744.222 101.333 742.222C97.9999 740.222 97.9999 737.111 101.333 735.111C104.667 733.333 110 733.333 113.555 735.111Z" fill="#01012c"/>
<path d="M262.666 731.778C262.666 732.222 262.444 732.667 262 732.667L193.111 772.445L186.889 776C186.666 776 186.444 776.222 186.222 776.222C185.778 776.222 185.555 776 185.333 775.556C185.111 775.111 185.111 774.222 185.778 774L191.111 771.111L259.333 731.778L234 717.111C233.555 716.889 233.333 716.445 233.333 716.222C233.333 715.778 233.555 715.333 234 715.333L259.111 700.889L262.889 698.667L265.111 700L261.333 702.222L236.889 716.445L262.222 731.111C262.444 731.111 262.666 731.333 262.666 731.778Z" fill="#01012c"/>
<path d="M192 771.778C195.333 773.778 195.333 776.889 192 778.889C188.666 780.889 183.111 780.889 179.778 778.889C176.444 776.889 176.444 773.778 179.778 771.778C183.111 769.778 188.666 769.778 192 771.778Z" fill="#01012c"/>
<path d="M480.666 856C480.666 856.445 480.444 856.889 480 856.889L412.889 895.556L404.889 900.222C404.666 900.222 404.444 900.445 404.222 900.445C403.778 900.445 403.555 900.222 403.333 899.778C403.111 899.333 403.111 898.445 403.778 898.222L410.889 894.222L477.333 855.778L452 841.111C451.555 840.889 451.333 840.444 451.333 840.222C451.333 839.778 451.555 839.333 452 839.333L475.778 825.556L479.555 823.333L481.778 824.667L478 826.889L454.889 840.222L480.222 854.889C480.444 855.333 480.666 855.556 480.666 856Z" fill="#01012c"/>
<path d="M411.778 894.889C415.111 896.889 415.111 900 411.778 902C408.444 904 402.889 904 399.555 902C396.222 900 396.222 896.889 399.555 894.889C402.889 892.889 408.222 892.889 411.778 894.889Z" fill="#01012c"/>
<path d="M218.222 769.778C221.556 771.778 221.556 774.889 218.222 776.889C214.889 778.889 209.333 778.889 206 776.889C202.667 774.889 202.667 771.778 206 769.778C209.333 767.778 214.667 767.778 218.222 769.778Z" fill="#01012c"/>
<path d="M231.111 801.111C234.444 803.111 234.444 806.222 231.111 808.222C227.778 810.222 222.222 810.222 218.889 808.222C215.556 806.222 215.556 803.111 218.889 801.111C222.222 799.111 227.778 799.111 231.111 801.111Z" fill="#01012c"/>
<path d="M304 819.111C307.333 821.111 307.333 824.222 304 826.222C300.667 828.222 295.111 828.222 291.778 826.222C288.444 824.222 288.444 821.111 291.778 819.111C295.111 817.111 300.444 817.111 304 819.111Z" fill="#01012c"/>
<path d="M304.222 845.333C307.556 847.333 307.556 850.444 304.222 852.444C300.889 854.444 295.333 854.444 292 852.444C288.667 850.444 288.667 847.333 292 845.333C295.333 843.556 300.889 843.556 304.222 845.333Z" fill="#01012c"/>
<path d="M356.222 852.889C359.556 854.889 359.556 858 356.222 860C352.889 862 347.333 862 344 860C340.667 858 340.667 854.889 344 852.889C347.333 850.889 352.667 850.889 356.222 852.889Z" fill="#01012c"/>
<path d="M381.778 862.889C385.111 864.889 385.111 868 381.778 870C378.444 872 372.889 872 369.555 870C366.222 868 366.222 864.889 369.555 862.889C372.889 861.111 378.222 861.111 381.778 862.889Z" fill="#01012c"/>
<path d="M860.222 768.445C860 768.889 859.555 769.111 859.333 769.111C859.111 769.111 858.889 769.111 858.667 768.889L851.778 764.889L783.555 725.556C783.111 725.333 782.889 724.889 782.889 724.667C782.889 724.222 783.111 723.778 783.555 723.778L808.889 709.111L786.222 696L782.444 693.778L784.667 692.445L788.444 694.667L811.778 708.222C812.222 708.445 812.444 708.889 812.444 709.111C812.444 709.556 812.222 710 811.778 710L786.444 724.667L854.444 764L860 767.111C860.222 767.333 860.444 768 860.222 768.445Z" fill="#01012c"/>
<path d="M624.222 905.111C624 905.556 623.555 905.778 623.333 905.778C623.111 905.778 622.889 905.778 622.666 905.556L616 901.778L547.555 862.222C547.111 862 546.889 861.556 546.889 861.333C546.889 860.889 547.111 860.444 547.555 860.444L572.889 845.778L550.666 832.889L546.889 830.667L549.111 829.333L552.889 831.556L575.555 844.444C576 844.667 576.222 845.111 576.222 845.333C576.222 845.778 576 846.222 575.555 846.222L550.222 860.889L618.444 900.222L623.555 903.333C624.444 903.778 624.444 904.444 624.222 905.111Z" fill="#01012c"/>
<path d="M740.444 831.778C740.222 832.222 739.777 832.445 739.555 832.445C739.333 832.445 739.111 832.445 738.889 832.222L732.666 828.667L680.889 798.667C680.444 798.444 680.222 798 680.222 797.778C680.222 797.333 680.444 796.889 680.889 796.889L700 785.778L682.666 775.556L680.444 774.222L666 765.778L662.222 763.556L664.444 762.222L668.222 764.445L682.666 772.889L684.889 774.222L702.666 784.667C703.111 784.889 703.333 785.333 703.333 785.556C703.333 786 703.111 786.444 702.666 786.444L683.555 797.556L735.555 827.556L740 830C740.666 830.445 740.889 831.111 740.444 831.778Z" fill="#01012c"/>
<path d="M834.666 828.667C834.444 829.111 834 829.333 833.778 829.333C833.555 829.333 833.333 829.333 833.111 829.111L826.444 825.333L732 770.667C731.555 770.444 731.333 770 731.333 769.778C731.333 769.333 731.555 768.889 732 768.889L766.666 748.889L730.666 728L726.889 725.778L729.111 724.444L732.889 726.667L769.555 747.778C770 748 770.222 748.444 770.222 748.667C770.222 749.111 770 749.556 769.555 749.556L734.889 769.556L829.111 824L834.222 827.111C834.889 827.556 835.111 828.222 834.666 828.667Z" fill="#01012c"/>
<path d="M733.333 857.333C733.111 857.778 732.666 858 732.444 858C732.222 858 732 858 731.777 857.778L726 854.444L659.111 815.778L622.222 837.111C621.777 837.333 621.333 837.333 621.111 837.111L582 814.444L578.222 812.222L580.444 810.889L584.222 813.111L621.777 834.667L658.666 813.333C659.111 813.111 659.555 813.111 659.777 813.333L728.444 852.889L733.111 855.556C733.333 856 733.555 856.667 733.333 857.333Z" fill="#01012c"/>
<path d="M833.778 766.444C833.555 766.889 833.111 767.111 832.889 767.111C832.666 767.111 832.444 767.111 832.222 766.889L825.778 763.111L747.778 718L744 715.778L746.222 714.444L750 716.667L828.222 761.778L833.333 764.889C833.778 765.333 834 766 833.778 766.444Z" fill="#01012c"/>
<path d="M894 731.111C893.778 731.556 893.333 731.778 893.111 731.778C892.889 731.778 892.667 731.778 892.444 731.556L885.333 727.333L808.222 682.667L804.444 680.445L806.667 679.111L810.444 681.333L887.555 725.778L893.555 729.333C894.222 730 894.222 730.667 894 731.111Z" fill="#01012c"/>
<path d="M763.555 806.445C763.333 806.889 762.889 807.111 762.667 807.111C762.444 807.111 762.222 807.111 762 806.889L754.889 802.889L695.111 768.445L692.889 767.111L678.222 758.667L674.444 756.445L676.667 755.111L680.444 757.333L695.111 765.778L697.333 767.111L756.889 801.556L763.111 805.111C763.555 805.111 763.778 806 763.555 806.445Z" fill="#01012c"/>
<path d="M650.222 872.444C650 872.889 649.555 873.111 649.333 873.111C649.111 873.111 648.889 873.111 648.666 872.889L642 869.111L564.666 824.444L560.889 822.222L563.111 820.889L566.889 823.111L644.444 868L649.778 871.111C650.444 871.333 650.666 872 650.222 872.444Z" fill="#01012c"/>
<path d="M733.778 745.778L697.333 766.889L695.111 768.222L685.111 774L682.666 775.333L637.111 801.778L630.222 805.778L629.111 803.778L635.111 800.222L680.444 774L682.666 772.667L692.889 766.889L695.111 765.556L729.333 745.778L714.444 737.333L710.666 735.111L712.889 733.778L716.666 736L733.778 745.778Z" fill="#01012c"/>
<path d="M628.444 901.556C631.777 903.556 631.777 906.667 628.444 908.667C625.111 910.667 619.555 910.667 616.222 908.667C612.889 906.667 612.889 903.556 616.222 901.556C619.555 899.556 625.111 899.556 628.444 901.556Z" fill="#01012c"/>
<path d="M655.111 868.667C658.444 870.667 658.444 873.778 655.111 875.778C651.778 877.778 646.222 877.778 642.889 875.778C639.555 873.778 639.555 870.667 642.889 868.667C646.222 866.667 651.778 866.667 655.111 868.667Z" fill="#01012c"/>
<path d="M635.333 800.222C638.666 802.222 638.666 805.333 635.333 807.333C632 809.333 626.444 809.333 623.111 807.333C619.778 805.333 619.778 802.222 623.111 800.222C626.444 798.222 631.778 798.222 635.333 800.222Z" fill="#01012c"/>
<path d="M739.333 853.556C742.666 855.556 742.666 858.667 739.333 860.667C736 862.667 730.444 862.667 727.111 860.667C723.778 858.667 723.778 855.556 727.111 853.556C730.444 851.778 735.778 851.778 739.333 853.556Z" fill="#01012c"/>
<path d="M744 828.889C747.333 830.889 747.333 834 744 836C740.666 838 735.111 838 731.778 836C728.444 834 728.444 830.889 731.778 828.889C735.111 827.111 740.666 827.111 744 828.889Z" fill="#01012c"/>
<path d="M768.667 801.556C772 803.556 772 806.667 768.667 808.667C765.333 810.667 759.778 810.667 756.444 808.667C753.111 806.667 753.111 803.556 756.444 801.556C759.778 799.778 765.333 799.778 768.667 801.556Z" fill="#01012c"/>
<path d="M838.889 825.111C842.222 827.111 842.222 830.222 838.889 832.222C835.555 834.222 830 834.222 826.667 832.222C823.333 830.222 823.333 827.111 826.667 825.111C830 823.111 835.555 823.111 838.889 825.111Z" fill="#01012c"/>
<path d="M832.444 771.333C837.231 771.333 841.111 769.045 841.111 766.222C841.111 763.4 837.231 761.111 832.444 761.111C827.658 761.111 823.778 763.4 823.778 766.222C823.778 769.045 827.658 771.333 832.444 771.333Z" fill="#01012c"/>
<path d="M864.444 764.667C867.777 766.667 867.777 769.778 864.444 771.778C861.111 773.778 855.555 773.778 852.222 771.778C848.889 769.778 848.889 766.667 852.222 764.667C855.555 762.667 860.889 762.667 864.444 764.667Z" fill="#01012c"/>
<path d="M898.889 726.667C902.222 728.667 902.222 731.778 898.889 733.778C895.555 735.778 890 735.778 886.667 733.778C883.333 731.778 883.333 728.667 886.667 726.667C890 724.667 895.333 724.667 898.889 726.667Z" fill="#01012c"/>
<path d="M434.889 452.667C434.889 453.111 434.667 453.333 434.445 453.556L416.444 464.444L414.222 465.778L391.556 479.333L389.333 480.667L368 493.333L427.778 527.778L431.556 530L429.333 531.333L425.556 529.111L365.333 494.444C364.889 494.222 364.667 493.778 364.667 493.556C364.667 493.111 364.889 492.667 365.111 492.667L386.889 479.556L389.111 478.222L411.778 464.667L414 463.333L431.556 452.889L398 433.556L392.222 430.222C391.778 430 391.556 429.111 391.778 428.667C392 428.222 392.889 428 393.333 428.222L400 432L434.222 451.778C434.667 451.778 434.889 452.222 434.889 452.667Z" fill="#01012c"/>
<path d="M230.889 644.444L172.222 610.667L197.556 596C198 595.778 198.222 595.333 198.222 595.111C198.222 594.667 198 594.222 197.556 594.222L163.111 574.444L156.667 570.667C156.222 570.444 155.333 570.444 155.111 571.111C154.889 571.556 154.889 572.444 155.556 572.667L160.444 575.556L194.667 595.333L169.333 610C168.889 610.222 168.667 610.667 168.667 610.889C168.667 611.333 168.889 611.778 169.333 611.778L228.445 646L230.889 644.444Z" fill="#01012c"/>
<path d="M350.222 577.333L348 578.667L344.222 576.444L303.556 552.889C303.111 552.667 302.889 552.222 302.889 552C302.889 551.556 303.111 551.111 303.556 551.111L322.667 540L275.556 512.222L271.111 509.556C270.667 509.333 270.445 508.444 270.667 508C270.889 507.556 271.778 507.333 272.222 507.556L278 510.889L325.556 538.889C326 539.111 326.222 539.556 326.222 539.778C326.222 540.222 326 540.444 325.556 540.667L306.445 551.778L346.667 574.889L350.222 577.333Z" fill="#01012c"/>
<path d="M401.111 547.778L398.889 549.111L395.111 546.889L331.778 510.222C331.333 510 331.111 509.556 331.111 509.333C331.111 508.889 331.333 508.444 331.778 508.444L359.778 492.222L324.222 471.778L316.667 467.333C316.222 467.111 316 466.222 316.222 465.778C316.444 465.333 317.333 465.111 317.778 465.333L326.444 470.222L362.667 491.111C363.111 491.333 363.333 491.778 363.333 492C363.333 492.222 363.111 492.889 362.667 492.889L334.667 509.111L397.556 545.333L401.111 547.778Z" fill="#01012c"/>
<path d="M321.556 594L319.333 595.333L315.556 593.111L274.222 569.111L244.667 586.222C244.222 586.444 243.778 586.444 243.556 586.222L203.556 563.111L198.667 560.222C198.222 560 198 559.111 198.222 558.667C198.444 558.222 199.333 558 199.778 558.222L205.778 561.556L244.222 583.778L273.778 566.667C274.222 566.444 274.667 566.444 274.889 566.667L318 591.556L321.556 594Z" fill="#01012c"/>
<path d="M455.333 516.222L453.111 517.555L449.333 515.333L389.333 480.667L387.111 479.333L368.444 468.667L363.556 465.778C363.111 465.556 362.889 464.667 363.111 464.222C363.333 463.778 364.222 463.556 364.667 463.778L370.889 467.333L389.111 478L391.333 479.333L451.333 514L455.333 516.222Z" fill="#01012c"/>
<path d="M480.667 501.556L478.444 502.889L474.667 500.667L414.222 465.778L412 464.444L342.222 424.222L338.667 422.222C338.222 422 338 421.111 338.222 420.667C338.444 420.222 339.333 420 339.778 420.222L345.111 423.333L414.444 463.333L416.667 464.667L477.111 499.556L480.667 501.556Z" fill="#01012c"/>
<path d="M388.667 554.889L386.444 556.222L382.667 554L302.667 507.778L297.333 504.667C296.889 504.444 296.667 503.556 296.889 503.111C297.111 502.667 298 502.444 298.444 502.667L305.111 506.444L384.889 552.667L388.667 554.889Z" fill="#01012c"/>
<path d="M276.222 620.222L274 621.556L270.222 619.333L234.444 598.667L225.778 593.778C225.333 593.556 225.111 592.667 225.333 592.222C225.555 591.778 226.444 591.556 226.889 591.778L236.667 597.556L272.222 618.222L276.222 620.222Z" fill="#01012c"/>
<path d="M163.111 567.111C166.444 569.111 166.444 572.222 163.111 574.222C159.778 576.222 154.222 576.222 150.889 574.222C147.556 572.222 147.556 569.111 150.889 567.111C154.222 565.111 159.778 565.111 163.111 567.111Z" fill="#01012c"/>
<path d="M236 590.889C239.333 592.889 239.333 596 236 598C232.667 600 227.111 600 223.778 598C220.444 596 220.444 592.889 223.778 590.889C227.111 588.889 232.667 588.889 236 590.889Z" fill="#01012c"/>
<path d="M204 555.778C207.333 557.778 207.333 560.889 204 562.889C200.667 564.889 195.111 564.889 191.778 562.889C188.444 560.889 188.444 557.778 191.778 555.778C195.111 553.778 200.444 553.778 204 555.778Z" fill="#01012c"/>
<path d="M277.111 504.222C280.444 506.222 280.444 509.333 277.111 511.333C273.778 513.333 268.222 513.333 264.889 511.333C261.556 509.333 261.556 506.222 264.889 504.222C268.222 502.444 273.778 502.444 277.111 504.222Z" fill="#01012c"/>
<path d="M217.333 538.889C220.667 540.889 220.667 544 217.333 546C214 548 208.444 548 205.111 546C201.778 544 201.778 540.889 205.111 538.889C208.444 536.889 214 536.889 217.333 538.889Z" fill="#01012c"/>
<path d="M336.444 585.333L334.222 586.667L330.444 584.445L235.556 529.556L218.444 539.556L212 543.333C211.556 543.556 210.667 543.556 210.444 542.889C210.222 542.445 210.222 541.556 210.889 541.333L216.222 538.222L235.111 527.333C235.556 527.111 236 527.111 236.222 527.333L332.667 583.111L336.444 585.333Z" fill="#01012c"/>
<path d="M494.889 493.111L492.667 494.444L488.889 492.222L447.778 468.444C447.333 468.222 447.111 467.778 447.111 467.556C447.111 467.333 447.333 466.667 447.778 466.667L466.889 455.556L419.778 427.778L415.333 425.111C414.889 424.889 414.667 424 414.889 423.556C415.111 423.111 416 422.889 416.444 423.111L422.222 426.444L469.778 454.444C470.222 454.667 470.444 455.111 470.444 455.333C470.444 455.778 470.222 456.222 469.778 456.222L450.667 467.333L491.333 490.889L494.889 493.111Z" fill="#01012c"/>
<path d="M421.333 420C424.667 422 424.667 425.111 421.333 427.111C418 429.111 412.444 429.111 409.111 427.111C405.778 425.111 405.778 422 409.111 420C412.444 418 418 418 421.333 420Z" fill="#01012c"/>
<path d="M304.444 499.778C307.778 501.778 307.778 504.889 304.444 506.889C301.111 508.889 295.556 508.889 292.222 506.889C288.889 504.889 288.889 501.778 292.222 499.778C295.556 497.778 301.111 497.778 304.444 499.778Z" fill="#01012c"/>
<path d="M325.111 464C328.444 466 328.444 469.111 325.111 471.111C321.778 473.111 316.222 473.111 312.889 471.111C309.556 469.111 309.556 466 312.889 464C316.222 462 321.556 462 325.111 464Z" fill="#01012c"/>
<path d="M345.111 416C348.444 418 348.444 421.111 345.111 423.111C341.778 425.111 336.222 425.111 332.889 423.111C329.556 421.111 329.556 418 332.889 416C336.222 414 341.556 414 345.111 416Z" fill="#01012c"/>
<path d="M398.889 425.778C402.222 427.778 402.222 430.889 398.889 432.889C395.556 434.889 390 434.889 386.667 432.889C383.333 430.889 383.333 427.778 386.667 425.778C390 423.778 395.556 423.778 398.889 425.778Z" fill="#01012c"/>
<path d="M370.444 460.667C373.778 462.667 373.778 465.778 370.444 467.778C367.111 469.778 361.556 469.778 358.222 467.778C354.889 465.778 354.889 462.667 358.222 460.667C361.556 458.667 367.111 458.667 370.444 460.667Z" fill="#01012c"/>
<path d="M818.444 583.333C818.444 583.778 818.222 584 817.778 584.222L761.111 616.889L757.333 619.111L755.111 617.778L758.889 615.556L814.889 583.111L763.333 552.222L761.111 550.889L748.444 543.333C748 543.111 747.778 542.667 748 542.445C748 542 748.222 541.778 748.666 541.556L782.666 521.778L789.333 518C789.778 517.778 790.666 517.778 790.889 518.445C791.111 518.889 791.111 519.778 790.444 520L784.889 523.333L751.333 542.667L763.555 550L765.778 551.333L817.778 582.445C818.222 582.445 818.444 582.889 818.444 583.333Z" fill="#01012c"/>
<path d="M764.222 511.556L759.778 514.222L712.667 542L731.778 553.111C732.222 553.333 732.444 553.778 732.444 554C732.444 554.444 732.222 554.889 731.778 554.889L692.667 577.556L688.889 579.778L686.667 578.444L690.444 576.222L729.111 554L710 542.889C709.555 542.667 709.333 542.222 709.333 542C709.333 541.556 709.555 541.111 710 541.111L757.555 513.111L763.333 509.778C763.778 509.556 764.667 509.556 764.889 510.222C764.889 510.444 764.889 511.111 764.222 511.556Z" fill="#01012c"/>
<path d="M715.778 462L708.444 466.222L671.778 487.333L700.444 503.778C700.889 504 701.111 504.444 701.111 504.667C701.111 505.111 700.889 505.556 700.444 505.556L634.889 543.333L631.111 545.556L628.889 544.222L632.666 542L697.555 504.444L668.889 488C668.444 487.778 668.222 487.333 668.222 487.111C668.222 486.667 668.444 486.222 668.889 486.222L706.444 464.444L714.666 459.778C715.111 459.556 716 459.556 716.222 460.222C716.444 461.111 716.222 461.778 715.778 462Z" fill="#01012c"/>
<path d="M879.778 605.778L874.889 608.667L841.778 627.778C841.333 628 840.889 628 840.667 627.778L815.778 613.333L785.333 630.889L781.555 633.111L779.333 631.778L783.111 629.556L815.111 611.111C815.555 610.889 816 610.889 816.222 611.111L841.111 625.556L872.222 607.556L878.444 604C878.889 603.778 879.778 603.778 880 604.444C880.444 604.889 880.222 605.556 879.778 605.778Z" fill="#01012c"/>
<path d="M669.555 468.222L664.667 471.111L586.667 516L582.889 518.222L580.667 516.889L584.444 514.667L662.222 469.778L668.444 466.222C668.889 466 669.778 466 670 466.667C670.222 467.111 670 468 669.555 468.222Z" fill="#01012c"/>
<path d="M697.111 424L693.555 426L562.222 501.778L558.444 504L556.222 502.667L560 500.444L690.889 424.889L696.222 421.778C696.667 421.556 697.555 421.556 697.778 422.222C697.778 423.111 697.556 423.778 697.111 424Z" fill="#01012c"/>
<path d="M738 506.667L732.666 509.778L654 555.111L650.222 557.333L648 556L651.777 553.778L730.222 508.444L736.889 504.667C737.333 504.444 738.222 504.444 738.444 505.111C738.889 505.556 738.666 506.222 738 506.667Z" fill="#01012c"/>
<path d="M652.889 505.556L644.222 510.445L610.444 530L606.667 532.222L604.444 530.889L608.222 528.667L641.778 509.333L651.555 503.556C652 503.333 652.889 503.333 653.111 504C653.555 504.667 653.555 505.333 652.889 505.556Z" fill="#01012c"/>
<path d="M648.889 511.333C653.675 511.333 657.555 509.045 657.555 506.222C657.555 503.4 653.675 501.111 648.889 501.111C644.102 501.111 640.222 503.4 640.222 506.222C640.222 509.045 644.102 511.333 648.889 511.333Z" fill="#01012c"/>
<path d="M872.889 600.667C869.555 602.667 869.555 605.778 872.889 607.778C876.222 609.778 881.778 609.778 885.111 607.778C888.444 605.778 888.444 602.667 885.111 600.667C881.778 598.667 876.222 598.667 872.889 600.667Z" fill="#01012c"/>
<path d="M758.222 506.222C754.889 508.222 754.889 511.333 758.222 513.333C761.556 515.333 767.111 515.333 770.444 513.333C773.778 511.333 773.778 508.222 770.444 506.222C767.111 504.222 761.556 504.222 758.222 506.222Z" fill="#01012c"/>
<path d="M818 540.889C814.667 542.889 814.667 546 818 548C821.333 550 826.889 550 830.222 548C833.556 546 833.556 542.889 830.222 540.889C826.889 538.889 821.333 538.889 818 540.889Z" fill="#01012c"/>
<path d="M824.889 544.889C824.667 545.333 823.778 545.556 823.333 545.333L816.889 541.556L799.778 531.556L766 551.111L763.778 552.445L706.667 585.333L702.889 587.556L700.667 586.222L704.444 584L761.555 551.111L763.778 549.778L799.333 529.333C799.778 529.111 800.222 529.111 800.444 529.333L819.333 540.222L824.667 543.333C825.111 543.556 825.333 544.222 824.889 544.889Z" fill="#01012c"/>
<path d="M620 427.111L615.555 429.778L568.444 457.556L587.555 468.667C588 468.889 588.222 469.333 588.222 469.556C588.222 470 588 470.444 587.555 470.444L547.555 493.556L543.778 495.778L529.555 504C529.333 504 529.111 504.222 528.889 504.222C528.444 504.222 528 504 528 503.556C527.778 503.111 527.778 502.222 528.444 502L541.555 494.445L545.333 492.222L584.889 469.333L565.778 458.222C565.333 458 565.111 457.556 565.111 457.333C565.111 456.889 565.333 456.444 565.778 456.444L613.333 428.445L619.111 425.111C619.555 424.889 620.444 424.889 620.666 425.556C620.666 426 620.444 426.889 620 427.111Z" fill="#01012c"/>
<path d="M614 422C610.666 424 610.666 427.111 614 429.111C617.333 431.111 622.889 431.111 626.222 429.111C629.555 427.111 629.555 424 626.222 422C622.889 420 617.333 420 614 422Z" fill="#01012c"/>
<path d="M730.889 501.778C727.555 503.778 727.555 506.889 730.889 508.889C734.222 510.889 739.778 510.889 743.111 508.889C746.444 506.889 746.444 503.778 743.111 501.778C739.778 499.778 734.222 499.778 730.889 501.778Z" fill="#01012c"/>
<path d="M714.222 467.778C719.009 467.778 722.889 465.489 722.889 462.667C722.889 459.844 719.009 457.556 714.222 457.556C709.436 457.556 705.555 459.844 705.555 462.667C705.555 465.489 709.436 467.778 714.222 467.778Z" fill="#01012c"/>
<path d="M690.222 418C686.889 420 686.889 423.111 690.222 425.111C693.556 427.111 699.111 427.111 702.444 425.111C705.778 423.111 705.778 420 702.444 418C699.111 416 693.778 416 690.222 418Z" fill="#01012c"/>
<path d="M784 515.556C780.666 517.556 780.666 520.667 784 522.667C787.333 524.667 792.889 524.667 796.222 522.667C799.555 520.667 799.555 517.556 796.222 515.556C792.889 513.778 787.555 513.778 784 515.556Z" fill="#01012c"/>
<path d="M662.667 463.111C659.333 465.111 659.333 468.222 662.667 470.222C666 472.222 671.555 472.222 674.889 470.222C678.222 468.222 678.222 465.111 674.889 463.111C671.555 461.111 666 461.111 662.667 463.111Z" fill="#01012c"/>
<path d="M401.555 501.556L382.667 490.667C380.667 489.556 379.111 487.111 378.444 483.333L397.333 494.222C397.778 498 399.333 500.444 401.555 501.556Z" fill="#DAD9E8"/>
<mask id="mask0_4398_5680" style="mask-type:luminance" maskUnits="userSpaceOnUse" x="378" y="483" width="24" height="19">
<path d="M401.555 501.556L382.667 490.667C380.667 489.556 379.111 487.111 378.444 483.333L397.333 494.222C397.778 498 399.333 500.444 401.555 501.556Z" fill="white"/>
</mask>
<g mask="url(#mask0_4398_5680)">
<path d="M401.555 501.556L382.667 490.667C380.667 489.556 379.111 487.111 378.444 483.333L397.333 494.222C397.778 498 399.333 500.444 401.555 501.556Z" fill="#DAD9E8"/>
</g>
<path d="M417.778 304.667L436.667 315.556C431.111 312.444 423.556 312.667 414.889 317.778L396 306.889C404.667 302 412.222 301.556 417.778 304.667Z" fill="#DAD9E8"/>
<mask id="mask1_4398_5680" style="mask-type:luminance" maskUnits="userSpaceOnUse" x="396" y="302" width="41" height="16">
<path d="M417.778 304.667L436.667 315.556C431.111 312.444 423.556 312.667 414.889 317.778L396 306.889C404.667 302 412.222 301.556 417.778 304.667Z" fill="white"/>
</mask>
<g mask="url(#mask1_4398_5680)">
<path d="M414.889 317.778L396 306.889C404.444 302 412.222 301.556 417.778 304.667L436.667 315.556C431.111 312.444 423.333 312.889 414.889 317.778Z" fill="#DAD9E8"/>
</g>
<path d="M397.333 494.222L378.444 483.333L360.222 368.222L379.111 379.111L397.333 494.222Z" fill="#DAD9E8"/>
<path d="M409.111 321.111L390.222 310.222L396 306.889L414.889 317.778L409.111 321.111Z" fill="#EBEBF1"/>
<path d="M379.111 379.111L360.222 368.222C357.111 348.667 371.333 321.111 390.222 310.222L409.111 321.111C390.444 332 376 359.556 379.111 379.111Z" fill="#EBEBF1"/>
<mask id="mask2_4398_5680" style="mask-type:luminance" maskUnits="userSpaceOnUse" x="359" y="310" width="51" height="70">
<path d="M379.111 379.111L360.222 368.222C357.111 348.667 371.333 321.111 390.222 310.222L409.111 321.111C390.444 332 376 359.556 379.111 379.111Z" fill="white"/>
</mask>
<g mask="url(#mask2_4398_5680)">
<path d="M379.111 379.111L360.222 368.222C359.333 362.222 360 355.556 361.778 348.889L380.667 359.778C378.889 366.667 378.222 373.333 379.111 379.111Z" fill="#EBEBF1"/>
<path d="M380.889 359.778L362 348.889C364.222 341.333 367.778 333.556 372.666 326.889L391.555 337.778C386.666 344.667 382.889 352.222 380.889 359.778Z" fill="#EBEBF1"/>
<path d="M391.555 337.778L372.667 326.889C376.222 321.778 380.666 317.111 385.333 313.556L404.222 324.444C399.333 328.222 395.111 332.667 391.555 337.778Z" fill="#EBEBF1"/>
<path d="M404 324.444L385.111 313.556C386.667 312.222 388.444 311.111 390.222 310.222L409.111 321.111C407.333 322.222 405.778 323.333 404 324.444Z" fill="#EBEBF1"/>
</g>
<path d="M414.889 317.778C433.778 306.889 448 318 445.111 341.111L427.778 476.667C426.444 487.333 419.555 496.222 412.667 500.222C405.778 504.222 398.889 503.333 397.333 494.222L379.111 379.111C376 359.556 390.222 332 409.111 321.111L414.889 317.778Z" fill="#C4C3EC"/>
<path d="M435.778 318.889L448.889 326.444C443.333 323.111 435.556 323.556 427.111 328.667L414 321.111C422.444 316 430.222 315.556 435.778 318.889Z" fill="#01012c"/>
<mask id="mask3_4398_5680" style="mask-type:luminance" maskUnits="userSpaceOnUse" x="414" y="316" width="35" height="13">
<path d="M435.778 318.889L448.889 326.444C443.333 323.111 435.556 323.556 427.111 328.667L414 321.111C422.444 316 430.222 315.556 435.778 318.889Z" fill="white"/>
</mask>
<g mask="url(#mask3_4398_5680)">
<path d="M427.111 328.667L414 321.111C422.444 316.222 430.222 315.778 435.778 318.889L448.889 326.444C443.333 323.111 435.556 323.555 427.111 328.667Z" fill="#01012c"/>
</g>
<path d="M430.222 341.333C441.778 334.667 451.333 340 451.333 353.333C451.333 366.667 442 382.889 430.444 389.556C418.889 396.222 409.333 390.889 409.333 377.556C409.111 364.444 418.444 348 430.222 341.333Z" fill="#01012c"/>
<path d="M405.333 401.333L392.222 393.778C386.667 390.667 383.333 383.778 383.333 374C383.333 354.444 396.889 330.889 414 321.111L427.111 328.667C410.222 338.444 396.444 362.222 396.444 381.556C396.444 391.333 400 398 405.333 401.333Z" fill="#01012c"/>
<mask id="mask4_4398_5680" style="mask-type:luminance" maskUnits="userSpaceOnUse" x="383" y="321" width="45" height="81">
<path d="M405.333 401.333L392.222 393.778C386.667 390.667 383.333 383.778 383.333 374C383.333 354.444 396.889 330.889 414 321.111L427.111 328.667C410.222 338.444 396.444 362.222 396.444 381.556C396.444 391.333 400 398 405.333 401.333Z" fill="white"/>
</mask>
<g mask="url(#mask4_4398_5680)">
<path d="M405.333 401.333L392.222 393.778C387.333 390.889 384 385.333 383.333 377.333L396.444 384.889C397.333 392.667 400.444 398.444 405.333 401.333Z" fill="#01012c"/>
<path d="M396.667 384.667L383.555 377.111C383.555 376 383.333 375.111 383.333 374C383.333 357.111 393.555 337.333 407.111 325.778L420.222 333.333C406.444 344.889 396.444 364.667 396.444 381.556C396.444 382.667 396.444 383.778 396.667 384.667Z" fill="#01012c"/>
<path d="M420.222 333.333L407.111 325.778C409.333 324 411.556 322.444 414 320.889L427.111 328.444C424.667 330 422.444 331.556 420.222 333.333Z" fill="#01012c"/>
</g>
<path d="M430.222 341.333L427.111 328.444C444 318.667 457.778 326.444 458 346C458 365.556 444.444 389.111 427.333 398.889C410.444 408.667 396.667 400.889 396.444 381.333C396.444 361.778 410 338.222 427.111 328.444L430.222 341.333C418.667 348 409.111 364.222 409.333 377.778C409.333 391.111 418.889 396.444 430.444 389.778C442 383.111 451.555 366.889 451.333 353.556C451.111 340 441.778 334.667 430.222 341.333Z" fill="#01012c"/>
<mask id="mask5_4398_5680" style="mask-type:luminance" maskUnits="userSpaceOnUse" x="396" y="324" width="62" height="80">
<path d="M430.222 341.333L427.111 328.444C444 318.667 457.778 326.444 458 346C458 365.556 444.444 389.111 427.333 398.889C410.444 408.667 396.667 400.889 396.444 381.333C396.444 361.778 410 338.222 427.111 328.444L430.222 341.333C418.667 348 409.111 364.222 409.333 377.778C409.333 391.111 418.889 396.444 430.444 389.778C442 383.111 451.555 366.889 451.333 353.556C451.111 340 441.778 334.667 430.222 341.333Z" fill="white"/>
</mask>
<g mask="url(#mask5_4398_5680)">
<path d="M430.222 341.333L427.111 328.444C444 318.667 457.778 326.444 458 346C458 365.556 444.444 389.111 427.333 398.889C410.444 408.667 396.667 400.889 396.444 381.333C396.444 361.778 410 338.222 427.111 328.444L430.222 341.333C418.667 348 409.111 364.222 409.333 377.778C409.333 391.111 418.889 396.444 430.444 389.778C442 383.111 451.555 366.889 451.333 353.556C451.111 340 441.778 334.667 430.222 341.333Z" fill="#12B0F3"/>
</g>
<path d="M394.15 106.965L387.775 108.917L421.805 220.049L428.179 218.097L394.15 106.965Z" fill="#171C29"/>
<path d="M465.778 568.444C434.444 549.111 427.555 523.333 424.444 512.222C426.889 522.889 435.111 533.333 449.333 542C484.667 563.333 543.333 564 580.222 543.333C596 534.444 605.333 523.111 608 511.556C605.555 520.667 602 534.667 588.222 550.667C582.889 556.667 571.333 568 552.889 575.556C524.889 586.444 490.667 583.778 465.778 568.444Z" fill="#919DD6"/>
<path d="M580.889 315.111C615.333 336 614.222 369.111 578.222 389.111C542.222 409.111 485.111 408.667 450.444 387.778C416 366.889 417.111 333.778 453.111 313.778C489.333 293.778 546.444 294.444 580.889 315.111Z" fill="#E4E3EE"/>
<path d="M424.445 511.778L396.667 390C400 404.222 410.667 418 429.111 428.889C475.111 456.667 551.333 457.333 599.333 430.667C620 419.111 632 404.444 635.333 389.333L608.222 511.111C605.556 522.889 596.445 534.222 580.445 542.889C543.556 563.556 484.889 562.889 449.556 541.556C435.111 533.333 426.889 522.667 424.445 511.778Z" fill="#B7B6E3"/>
<path d="M438.444 312C485.556 286.444 552 287.333 596.667 313.778C592.667 311.333 587.111 311.556 580.889 315.111C546.444 294.222 489.111 293.778 453.111 313.778C417.111 333.778 416 366.889 450.444 387.778C484.889 408.667 542.222 409.111 578.222 389.111C614.222 369.111 615.333 336 580.889 315.111C587.111 311.556 592.667 311.333 596.667 313.778C606 319.778 620.222 328.889 630 348.222C639.111 366.222 636.444 382.222 635.111 389.111C631.556 404.667 619.556 419.333 598.889 430.889C550.889 457.556 474.667 456.889 428.667 429.111C410.222 418 399.556 404.222 396.222 390.222C395.111 384 394 378.222 395.111 369.111C396.444 357.556 401.111 348.889 401.333 348.667C404.889 342.222 414 325.111 438.444 312Z" fill="#DAD9E8"/>
<path d="M565.778 164.889C592.222 180.889 591.333 206.222 563.778 221.556C536.222 236.889 492.222 236.444 465.778 220.667C439.333 204.667 440.222 179.333 467.778 164C495.555 148.667 539.333 149.111 565.778 164.889Z" fill="#EBEBF1"/>
<path d="M430.889 355.111C388.222 328.667 378.889 293.778 378.444 269.111C378.444 288.889 391.111 308.667 416.667 324C469.333 355.556 556.222 356.444 611.111 326C639.333 310.222 653.555 289.333 653.333 268.222C652.889 281.111 652.222 287.778 646.889 302.222C642.889 313.556 635.555 323.111 631.778 328.222C630 330.667 613.111 352.222 580.444 364.889C524 387.111 464.667 376 430.889 355.111Z" fill="#B7B6E3"/>
<path d="M434.889 160C459.778 146.444 488 139.778 518.222 140C549.333 140.444 577.333 147.778 601.333 162C592.444 156.667 579.778 157.111 566 164.889C539.555 148.889 495.555 148.444 468 164C440.444 179.333 439.555 204.889 466 220.667C492.444 236.667 536.444 237.111 564 221.556C591.555 206.222 592.444 180.667 566 164.889C579.778 157.111 592.444 156.667 601.333 162C614 170.222 652.444 194.889 653.778 248C653.778 268.889 639.778 290 611.555 305.778C556.666 336.444 469.778 335.556 417.111 303.778C391.555 288.444 378.889 268.667 378.889 248.889C379.111 241.111 379.555 232.444 382.889 221.778C386.889 209.111 390.222 203.778 396 194.667C400 187.778 414 171.333 434.889 160Z" fill="#E4E3EE"/>
<path d="M543.111 326.444C498.666 331.778 450.667 324 416.889 303.778C391.555 288.444 378.889 268.889 378.667 249.111C378.667 236.222 383.778 224.444 392.667 215.111C392.889 232.667 404.222 250.444 427.111 264C457.333 282.222 500.444 289.111 540.444 284.444C542 298.889 543.111 313.778 543.111 326.444Z" fill="#B7B6E3"/>
<path d="M378.667 269.111V248.889C378.667 268.667 391.333 288.444 416.889 303.778C469.555 335.333 556.444 336.222 611.333 305.778C639.555 290 653.778 269.111 653.555 248V268.222C653.555 289.111 639.555 310.222 611.333 326C556.444 356.667 469.555 355.778 416.889 324C391.333 308.667 378.667 288.889 378.667 269.111Z" fill="#DAD9E8"/>
<path d="M400.889 269.778C398.222 277.333 393.556 278 390.444 270.889C385.111 259.111 390.444 245.111 397.556 247.111C398.889 247.556 399.556 248.222 400.222 248.889C404.444 255.333 402 266.222 400.889 269.778Z" fill="#01012c"/>
<path d="M478.889 304.222C476.889 315.778 462.444 317.556 455.111 307.333C447.555 296.667 455.778 284.444 466.444 285.778C466.889 285.778 467.333 286 467.778 286C477.111 288.667 479.778 298.444 478.889 304.222Z" fill="#01012c"/>
<path d="M607.333 254.889C607.333 248 602.667 245.333 596.667 248.667C590.889 252 586 260.222 586 267.111C586 274 590.667 276.667 596.667 273.333C602.444 270 607.333 261.778 607.333 254.889Z" fill="#01012c"/>
<path d="M598 264.667C596.889 264.667 596 264.222 595.333 263.333C594.222 261.778 594.444 259.778 596 258.667L673.555 200.444C675.111 199.333 677.111 199.556 678.222 201.111C679.333 202.667 679.111 204.667 677.555 205.778L600 264C599.333 264.444 598.666 264.667 598 264.667Z" fill="#171C29"/>
<path d="M695.333 198.889C695.333 188.889 687.333 180.889 677.333 180.889C667.333 180.889 659.333 188.889 659.333 198.889C659.333 208.889 667.333 216.889 677.333 216.889C687.333 216.889 695.333 208.667 695.333 198.889Z" fill="#01012c"/>
<path d="M407.555 108C407.555 98 399.555 90 389.555 90C379.555 90 371.555 98 371.555 108C371.555 118 379.555 126 389.555 126C399.333 126 407.555 118 407.555 108Z" fill="#01012c"/>
<path d="M623.333 383.556L636.444 391.111C630.889 387.778 623.111 388.222 614.667 393.333L601.555 385.778C610 380.889 617.555 380.444 623.333 383.556Z" fill="#01012c"/>
<mask id="mask6_4398_5680" style="mask-type:luminance" maskUnits="userSpaceOnUse" x="601" y="381" width="36" height="13">
<path d="M623.333 383.556L636.444 391.111C630.889 387.778 623.111 388.222 614.667 393.333L601.555 385.778C610 380.889 617.555 380.444 623.333 383.556Z" fill="white"/>
</mask>
<g mask="url(#mask6_4398_5680)">
<path d="M614.444 393.333L601.333 385.778C609.778 380.889 617.555 380.444 623.111 383.556L636.222 391.111C630.889 388 623.111 388.444 614.444 393.333Z" fill="#01012c"/>
</g>
<path d="M617.555 406.222C629.111 399.556 638.666 404.889 638.666 418.222C638.666 431.556 629.333 447.778 617.778 454.444C606.222 461.111 596.667 455.778 596.667 442.444C596.667 429.111 606 412.889 617.555 406.222Z" fill="#01012c"/>
<path d="M592.889 466L579.778 458.444C574.222 455.333 570.889 448.444 570.889 438.667C570.889 419.111 584.444 395.556 601.555 385.778L614.666 393.333C597.778 403.111 584 426.889 584 446.222C584 456 587.333 462.889 592.889 466Z" fill="#01012c"/>
<mask id="mask7_4398_5680" style="mask-type:luminance" maskUnits="userSpaceOnUse" x="570" y="385" width="45" height="81">
<path d="M592.889 466L579.778 458.444C574.222 455.333 570.889 448.444 570.889 438.667C570.889 419.111 584.444 395.556 601.555 385.778L614.666 393.333C597.778 403.111 584 426.889 584 446.222C584 456 587.333 462.889 592.889 466Z" fill="white"/>
</mask>
<g mask="url(#mask7_4398_5680)">
<path d="M592.889 466L579.778 458.444C574.889 455.556 571.555 450 570.889 442L584 449.556C584.889 457.556 588 463.111 592.889 466Z" fill="#01012c"/>
<path d="M584 449.556L570.889 442C570.889 440.889 570.667 440 570.667 438.889C570.667 422 580.889 402.222 594.444 390.667L607.555 398.222C593.778 409.778 583.778 429.555 583.778 446.444C584 447.333 584 448.444 584 449.556Z" fill="#01012c"/>
<path d="M607.778 398.222L594.667 390.667C596.889 388.889 599.111 387.333 601.555 385.778L614.667 393.333C612.222 394.667 610 396.222 607.778 398.222Z" fill="#01012c"/>
</g>
<path d="M617.555 406.222L614.444 393.333C631.333 383.556 645.111 391.333 645.333 410.889C645.333 430.444 631.778 454 614.666 463.778C597.778 473.556 584 465.778 583.778 446.222C583.778 426.667 597.333 403.111 614.444 393.333L617.555 406.222C606 412.889 596.444 429.111 596.666 442.667C596.666 456 606.222 461.333 617.778 454.667C629.333 448 638.889 431.778 638.666 418.444C638.666 404.889 629.111 399.556 617.555 406.222Z" fill="#01012c"/>
<mask id="mask8_4398_5680" style="mask-type:luminance" maskUnits="userSpaceOnUse" x="583" y="389" width="63" height="79">
<path d="M617.555 406.222L614.444 393.333C631.333 383.556 645.111 391.333 645.333 410.889C645.333 430.444 631.778 454 614.666 463.778C597.778 473.556 584 465.778 583.778 446.222C583.778 426.667 597.333 403.111 614.444 393.333L617.555 406.222C606 412.889 596.444 429.111 596.666 442.667C596.666 456 606.222 461.333 617.778 454.667C629.333 448 638.889 431.778 638.666 418.444C638.666 404.889 629.111 399.556 617.555 406.222Z" fill="white"/>
</mask>
<g mask="url(#mask8_4398_5680)">
<path d="M617.555 406.222L614.444 393.333C631.333 383.556 645.111 391.333 645.333 410.889C645.333 430.444 631.778 454 614.666 463.778C597.778 473.556 584 465.778 583.778 446.222C583.778 426.667 597.333 403.111 614.444 393.333L617.555 406.222C606 412.889 596.444 429.111 596.666 442.667C596.666 456 606.222 461.333 617.778 454.667C629.333 448 638.889 431.778 638.666 418.444C638.666 404.889 629.111 399.556 617.555 406.222Z" fill="#12B0F3"/>
</g>
<path d="M623.333 586.445L604.444 575.556C602.444 574.445 600.889 572 600.222 568.222L619.111 579.111C619.778 582.667 621.333 585.111 623.333 586.445Z" fill="#DAD9E8"/>
<mask id="mask9_4398_5680" style="mask-type:luminance" maskUnits="userSpaceOnUse" x="600" y="568" width="24" height="19">
<path d="M623.333 586.445L604.444 575.556C602.444 574.445 600.889 572 600.222 568.222L619.111 579.111C619.778 582.667 621.333 585.111 623.333 586.445Z" fill="white"/>
</mask>
<g mask="url(#mask9_4398_5680)">
<path d="M623.333 586.445L604.444 575.556C602.444 574.445 600.889 572 600.222 568.222L619.111 579.111C619.778 582.889 621.333 585.111 623.333 586.445Z" fill="#DAD9E8"/>
</g>
<path d="M639.556 389.556L658.444 400.444C652.889 397.333 645.333 397.556 636.667 402.667L617.778 391.778C626.444 386.667 634.222 386.222 639.556 389.556Z" fill="#DAD9E8"/>
<mask id="mask10_4398_5680" style="mask-type:luminance" maskUnits="userSpaceOnUse" x="617" y="387" width="42" height="16">
<path d="M639.556 389.556L658.444 400.444C652.889 397.333 645.333 397.556 636.667 402.667L617.778 391.778C626.444 386.667 634.222 386.222 639.556 389.556Z" fill="white"/>
</mask>
<g mask="url(#mask10_4398_5680)">
<path d="M636.889 402.667L618 391.778C626.444 386.889 634.222 386.444 639.778 389.556L658.667 400.444C652.889 397.333 645.333 397.556 636.889 402.667Z" fill="#DAD9E8"/>
</g>
<path d="M619.111 579.111L600.222 568L582.222 453.111L601.111 464L619.111 579.111Z" fill="#DAD9E8"/>
<path d="M631.111 406L612.222 394.889L618 391.556L636.889 402.667L631.111 406Z" fill="#EBEBF1"/>
<path d="M601.111 464L582.222 453.111C579.111 433.556 593.333 406 612.222 395.111L631.111 406C612.222 416.667 598 444.444 601.111 464Z" fill="#EBEBF1"/>
<mask id="mask11_4398_5680" style="mask-type:luminance" maskUnits="userSpaceOnUse" x="581" y="395" width="51" height="69">
<path d="M601.111 464L582.222 453.111C579.111 433.556 593.333 406 612.222 395.111L631.111 406C612.222 416.667 598 444.444 601.111 464Z" fill="white"/>
</mask>
<g mask="url(#mask11_4398_5680)">
<path d="M601.111 464L582.222 453.111C581.333 447.111 582 440.444 583.778 433.778L602.667 444.667C600.889 451.333 600.222 458 601.111 464Z" fill="#EBEBF1"/>
<path d="M602.666 444.667L583.778 433.778C586 426.222 589.555 418.444 594.444 411.778L613.333 422.667C608.666 429.333 604.889 437.111 602.666 444.667Z" fill="#EBEBF1"/>
<path d="M613.333 422.667L594.444 411.778C598 406.667 602.444 402 607.111 398.444L626 409.333C621.333 412.889 617.111 417.556 613.333 422.667Z" fill="#EBEBF1"/>
<path d="M626 409.333L607.111 398.444C608.667 397.111 610.444 396 612.222 395.111L631.111 406C629.333 406.889 627.556 408 626 409.333Z" fill="#EBEBF1"/>
</g>
<path d="M636.889 402.667C655.778 391.778 670 402.889 667.111 426L649.778 561.556C648.444 572.222 641.556 581.111 634.667 585.111C627.778 589.111 620.889 588.222 619.333 579.111L601.111 464C598 444.445 612.222 416.889 631.111 406L636.889 402.667Z" fill="#C4C3EC"/>
</g>
</svg>
